<?xml version="1.0" standalone="no"?>
<!DOCTYPE svg PUBLIC "-//W3C//DTD SVG 20010904//EN"
 "http://www.w3.org/TR/2001/REC-SVG-20010904/DTD/svg10.dtd">
<svg version="1.0" xmlns="http://www.w3.org/2000/svg"
 width="262.000000pt" height="192.000000pt" viewBox="0 0 262.000000 192.000000"
 preserveAspectRatio="xMidYMid meet">

<g transform="translate(0.000000,192.000000) scale(0.100000,-0.100000)"
fill="#000000" stroke="none">
<path d="M1960 1768 c-133 -71 -147 -247 -27 -342 34 -27 48 -31 110 -34 60
-2 78 1 112 20 100 58 131 188 68 285 -38 60 -85 87 -157 91 -50 3 -69 -1
-106 -20z"/>
<path d="M791 1676 c-9 -11 -10 -20 -1 -35 11 -21 17 -21 425 -21 382 0 415 1
424 17 6 11 6 24 0 35 -9 17 -37 18 -423 18 -347 0 -415 -2 -425 -14z"/>
<path d="M1463 1476 c-153 -39 -333 -193 -333 -287 0 -52 44 -89 106 -89 43 0
49 4 110 69 77 82 140 114 224 114 30 0 65 -3 77 -7 21 -7 21 -7 -13 -67 -19
-34 -73 -137 -120 -230 -67 -131 -98 -181 -139 -223 -108 -109 -222 -137 -344
-82 -57 25 -68 27 -102 17 -46 -14 -79 -57 -79 -103 0 -45 22 -74 81 -103 189
-96 422 -62 585 87 28 27 57 48 64 48 24 0 206 -101 275 -153 73 -55 92 -85
199 -315 29 -61 47 -87 69 -98 38 -20 86 -11 122 22 43 40 33 89 -60 279 -62
126 -90 171 -130 210 -41 41 -171 135 -250 181 -20 11 -13 26 157 331 16 30
28 41 40 37 165 -52 353 1 489 136 80 80 103 120 94 161 -12 55 -90 92 -144
69 -16 -6 -49 -36 -75 -65 -62 -72 -120 -105 -195 -112 -83 -8 -139 9 -261 77
-58 32 -134 68 -170 80 -80 27 -205 35 -277 16z"/>
<path d="M92 1318 c-18 -18 -14 -46 7 -58 27 -14 795 -14 822 0 21 12 25 40 7
58 -17 17 -819 17 -836 0z"/>
<path d="M348 899 c-21 -12 -23 -40 -6 -57 17 -17 819 -17 836 0 18 18 14 46
-7 58 -27 14 -799 13 -823 -1z"/>
<path d="M39 414 c-9 -11 -10 -20 -2 -32 9 -15 48 -17 384 -20 338 -2 375 -1
386 14 9 12 9 22 2 35 -9 18 -29 19 -383 19 -329 0 -375 -2 -387 -16z"/>
</g>
</svg>
